<?xml version="1.0" encoding="utf-8"?>
<!-- Generator: Adobe Illustrator 18.0.0, SVG Export Plug-In . SVG Version: 6.00 Build 0)  -->
<!DOCTYPE svg PUBLIC "-//W3C//DTD SVG 1.1//EN" "http://www.w3.org/Graphics/SVG/1.1/DTD/svg11.dtd">
<svg version="1.1" id="Layer_1" xmlns="http://www.w3.org/2000/svg" xmlns:xlink="http://www.w3.org/1999/xlink" x="0px" y="0px"
	 viewBox="0 0 256 256" enable-background="new 0 0 256 256" xml:space="preserve">
<g>
	<circle fill="#27A4D5" cx="128" cy="128" r="127"/>
	<rect x="191.3" y="107.6" fill="#EEF3F2" width="6" height="41.4"/>
	<path fill="#0B2C48" d="M199.3,193.4h-10c-1.3,0-2.3-1.1-2.3-2.4l2.4-41.4c0.1-1.2,1.1-2.1,2.3-2.1h5.2c1.2,0,2.2,0.9,2.3,2.1
		l2.4,41.4C201.6,192.3,200.6,193.4,199.3,193.4z"/>
	<path fill="#EEF3F2" d="M204,62.6h-2.8v32.9c0,0.8-0.7,1.4-1.6,1.4h-0.5c-0.9,0-1.6-0.6-1.6-1.4V62.6h-6.4v32.9
		c0,0.8-0.7,1.4-1.6,1.4H189c-0.9,0-1.6-0.6-1.6-1.4V62.6h-2.8c-1.3,7.9-3.5,21.4-3.9,28.7c-0.9,14.7,4.4,17.6,13.6,17.6
		c9.3,0,14.6-2.9,13.6-17.6C207.4,84.1,205.2,70.6,204,62.6z"/>
	<path fill="#EEF3F2" d="M50.5,63.2l0,73.5h11.3c1.2,0,2.2-0.9,2.3-2.1c0.7-10.4,3-56-12.3-71.9C51.4,62.1,50.5,62.5,50.5,63.2z"/>
	<path fill="#0B2C48" d="M61.9,193.6H51c-1.8,0-3.2-1.5-3.1-3.3l2.6-54.8c0,0,0-0.1,0.1-0.1h8.8c1.6,0,3,1.3,3.1,3l2.4,51.9
		C65,192.1,63.6,193.6,61.9,193.6z"/>
	<circle fill="#E7E8E9" cx="125.9" cy="128" r="50.4"/>
	<circle fill="#BBC2C6" cx="125.9" cy="128" r="35.7"/>
	<circle fill="#E7E8E9" cx="125.9" cy="128" r="32.4"/>
</g>
</svg>
